<?xml version="1.0" encoding="UTF-8" standalone="no"?>
<!-- Created with Inkscape (http://www.inkscape.org/) -->

<svg
   xmlns:dc="http://purl.org/dc/elements/1.1/"
   xmlns:cc="http://creativecommons.org/ns#"
   xmlns:rdf="http://www.w3.org/1999/02/22-rdf-syntax-ns#"
   xmlns:svg="http://www.w3.org/2000/svg"
   xmlns="http://www.w3.org/2000/svg"
   xmlns:sodipodi="http://sodipodi.sourceforge.net/DTD/sodipodi-0.dtd"
   xmlns:inkscape="http://www.inkscape.org/namespaces/inkscape"
   width="82"
   height="50"
   viewBox="0 0 21.695833 13.229167"
   version="1.1"
   id="svg150"
   inkscape:version="0.92.0 r15299"
   sodipodi:docname="WPBLogo-mini.svg">
  <defs
     id="defs144" />
  <sodipodi:namedview
     id="base"
     pagecolor="#ffffff"
     bordercolor="#666666"
     borderopacity="1.0"
     inkscape:pageopacity="0.0"
     inkscape:pageshadow="2"
     inkscape:zoom="3.959798"
     inkscape:cx="128.47885"
     inkscape:cy="39.562423"
     inkscape:document-units="mm"
     inkscape:current-layer="layer1"
     showgrid="false"
     units="px"
     inkscape:window-width="1600"
     inkscape:window-height="1177"
     inkscape:window-x="1912"
     inkscape:window-y="-8"
     inkscape:window-maximized="1" />
  <metadata
     id="metadata147">
    <rdf:RDF>
      <cc:Work
         rdf:about="">
        <dc:format>image/svg+xml</dc:format>
        <dc:type
           rdf:resource="http://purl.org/dc/dcmitype/StillImage" />
        <dc:title></dc:title>
      </cc:Work>
    </rdf:RDF>
  </metadata>
  <g
     inkscape:label="Layer 1"
     inkscape:groupmode="layer"
     id="layer1"
     transform="translate(0,-283.77082)">
    <g
       style="display:inline"
       id="g5325"
       transform="matrix(0.20062101,0,0,0.20062101,3.9145167,251.09144)">
      <path
         sodipodi:nodetypes="ccsccccccccccccccssccccccccccccczczccscccccsc"
         inkscape:connector-curvature="0"
         id="path4534-8"
         d="m 46.850979,166.84758 c -1.000734,0 -1.465918,0.14895 -2.096816,0.49173 -0.684732,0.37204 -1.284205,0.81921 -1.68656,1.61896 -0.402356,0.79974 -0.908453,2.83616 0.350121,4.17797 0,0 -0.512381,0.9939 -0.783149,1.52858 -0.270766,0.53467 -0.46431,1.49314 -0.536922,2.01462 -0.904482,-0.13226 -2.127822,-0.0979 -2.503867,1.10623 -0.111226,0.40327 -5.182058,3.78552 -6.647327,4.63413 l -0.484976,-0.44833 c -0.469251,0.23888 -1.875469,1.20274 -2.447649,1.43002 l -0.310626,-0.23555 -9.078252,6.62563 5.706098,9.64786 0.366663,-0.28718 1.592513,1.8952 0.557095,-0.43045 c 1.526362,2.46588 1.262169,0.99093 3.286824,3.58453 0.10747,0.56144 2.308293,1.05951 3.850651,2.33505 0.771179,0.63776 1.538766,0.95865 2.039292,1.60316 0.500528,0.64452 0.733997,1.61265 0.952214,1.61265 l 3.133061,-3.77915 0.941842,-0.50782 3.398766,-4.12126 c 0.425668,-0.13242 0.882903,-1.46959 0.882903,-1.78333 l -4.360633,-2.68322 c 0.392102,-1.49403 0.181173,-1.78335 -0.191068,-3.02371 1.122376,-1.50713 1.119393,-3.15953 1.073849,-4.17833 l 2.896436,-3.12119 c 1.161251,0.0523 2.798334,-0.96608 2.613902,-2.64382 0.902405,-0.40083 0.905376,-0.3755 1.810808,-0.37918 0.125913,1.77866 1.511125,2.7839 2.75453,3.48957 l 2.765134,-3.08981 c 6.580132,5.45273 15.480028,13.04515 19.980581,16.40639 4.500552,3.36125 7.579352,5.09955 10.95216,5.20286 -0.06135,-3.93129 -6.019988,-9.42014 -8.187563,-11.33361 -2.167575,-1.91347 -16.930837,-15.33439 -17.762879,-16.12258 l 2.35627,-2.72998 c -1.214838,-1.48955 -2.069974,-1.83239 -2.961513,-1.90985 -1.043908,-0.0907 -1.253962,0.23705 -2.029826,0.50916 -0.308095,-0.71276 -1.138361,-1.24537 -2.065952,-1.34227 -0.574666,-1.04735 -1.098853,-1.09421 -2.15019,-1.23737 -0.372447,-1.34074 -1.934924,-1.37167 -1.934924,-1.37167 -0.461854,-0.86712 -1.530066,-1.30812 -2.198931,-1.01905 -0.758327,-1.53274 -2.71013,-2.13559 -3.842084,-2.13559 z"
         style="display:inline;fill:#dcdce5;fill-opacity:1;stroke:none;stroke-width:0.3830978;stroke-opacity:1" />
      <path
         sodipodi:nodetypes="ccsccccccccccccccssccccccccccccczczccscccccsccscsccccccccccccsccczczczcczczcczcczzccczcczcsssccsccccsccczcccccccccsccccccccccccccszzzcccccccccccccscccccccccccccccc"
         inkscape:connector-curvature="0"
         id="path4534"
         d="m 46.850979,166.84758 c -1.000734,0 -1.465918,0.14895 -2.096815,0.49173 -0.684733,0.37204 -1.284206,0.81921 -1.686561,1.61896 -0.402356,0.79974 -0.908453,2.83616 0.350121,4.17797 0,0 -0.51238,0.9939 -0.783149,1.52858 -0.270766,0.53467 -0.46431,1.49314 -0.536922,2.01462 -0.904482,-0.13226 -2.127823,-0.0979 -2.503867,1.10623 -0.111226,0.40327 -5.182058,3.78552 -6.647327,4.63413 l -0.484976,-0.44833 c -0.469251,0.23888 -1.875469,1.20274 -2.447649,1.43002 l -0.310626,-0.23555 -9.078252,6.62563 5.706099,9.64787 0.366662,-0.28719 1.592513,1.8952 0.557095,-0.43045 c 1.526362,2.46588 1.262169,0.99093 3.286824,3.58453 0.10747,0.56145 2.308293,1.05951 3.850651,2.33505 0.771179,0.63776 1.538766,0.95865 2.039292,1.60316 0.500528,0.64452 0.733997,1.61265 0.952214,1.61265 l 3.133061,-3.77915 0.941842,-0.50782 3.398766,-4.12127 c 0.425668,-0.13241 0.882903,-1.46958 0.882903,-1.78332 l -4.16707,-2.51242 c 0.357945,-1.18662 0.169787,-2.30713 -0.384631,-3.19451 1.122376,-1.50713 1.119393,-3.15953 1.073849,-4.17833 l 2.896436,-3.12119 c 1.161251,0.0524 2.798334,-0.96608 2.613902,-2.64382 0.902404,-0.40083 0.905376,-0.3755 1.810811,-0.37918 0.125913,1.77865 1.511125,2.78391 2.754527,3.48957 l 2.765133,-3.08981 c 6.580136,5.45273 15.48003,13.04515 19.980583,16.40639 4.500551,3.36124 7.57935,5.09955 10.952161,5.20286 -0.06131,-3.93129 -6.019988,-9.42015 -8.187564,-11.33361 -2.167578,-1.91347 -16.930838,-15.33439 -17.762882,-16.12258 l 2.356274,-2.72998 c -1.214839,-1.48955 -2.069975,-1.83239 -2.961515,-1.90985 -1.043908,-0.0907 -1.253963,0.23705 -2.029823,0.50916 -0.308101,-0.71276 -1.138366,-1.24537 -2.065958,-1.34227 -0.574666,-1.04735 -1.098849,-1.09421 -2.150189,-1.23737 -0.372443,-1.34074 -1.934918,-1.37167 -1.934918,-1.37167 -0.461858,-0.86712 -1.530069,-1.30812 -2.198934,-1.01905 -0.758329,-1.53274 -2.710131,-2.13559 -3.842084,-2.13559 z m -0.09607,1.64172 c 0.273499,0.005 0.547304,0.0549 0.806989,0.1498 1.384981,0.50606 1.18873,1.33795 0.500274,1.81679 -0.688456,0.47885 -1.002586,0.89187 -1.416141,1.7193 -0.657148,1.31479 -2.281307,0.76169 -2.267607,-1.25318 0.01113,-1.63708 1.191329,-2.45499 2.376485,-2.43271 z m 3.83497,2.01285 c 0.09924,-1.5e-4 0.188268,0.0241 0.260456,0.0826 0.384993,0.31185 -1.168633,1.06755 -1.866602,1.91713 -0.697971,0.84959 -0.893252,2.12171 -1.383407,2.01071 -0.490155,-0.111 0.03931,-1.45867 0.336244,-2.01569 0.296936,-0.55702 1.050969,-1.20291 1.356009,-1.38483 0.247845,-0.14781 0.867256,-0.60922 1.2973,-0.60987 z m 2.0623,0.98311 c 0.208168,-0.011 0.357922,0.055 0.421642,0.21172 0.254878,0.62697 -1.444856,1.25949 -2.145206,1.94701 -0.700352,0.68753 -1.485102,2.49801 -1.872297,2.30995 -0.387194,-0.18807 -0.348046,-1.29474 0.891673,-2.67609 0.929788,-1.036 2.079689,-1.75987 2.704188,-1.79259 z m 2.79752,1.60042 c 0.396689,0.82436 -0.668821,0.70123 -1.209309,1.08451 -0.44384,-0.37316 -1.170933,-0.15139 -1.498153,0.0582 -0.327221,0.20957 -0.674962,0.7239 -0.508906,1.34952 -0.56451,0.44617 -0.768964,1.43431 -1.403897,1.07803 -0.634932,-0.35629 0.750938,-2.18194 1.379581,-2.74074 0.550696,-0.5093 2.843993,-1.65386 3.240684,-0.8295 z m -9.377629,1.31066 c 0.304935,1.07758 0.756933,1.53044 1.670094,1.6535 0.07887,1.15106 0.709129,1.82775 2.029627,1.39482 0.361979,0.60196 0.949246,0.41678 1.788811,0.60735 0.839565,0.19056 0.678615,0.38674 1.057777,0.73699 0.299185,0.40428 0.703003,0.67115 1.136833,-0.1369 0.272745,-0.49949 0.49987,-0.42733 0.384873,-0.98058 -0.541418,-0.49856 -1.437248,-1.76094 -1.060384,-2.33469 0.376865,-0.57373 1.305773,-0.62083 2.855497,0.81164 0,0 0.956611,0.7266 0.943837,1.40068 -0.01277,0.67407 -2.884512,3.72156 -3.646043,3.97352 -0.761531,0.25196 -4.458938,0.41565 -5.357935,0.63629 -1.345772,-1.33105 -2.272883,-2.24344 -3.618657,-3.5745 -0.09886,-1.8753 0.315362,-4.37229 1.81567,-4.18812 z m 11.161578,-0.0261 c 0.508421,0.49692 -0.36068,0.9485 -0.449393,1.16032 -0.309664,-0.2589 -1.31509,-0.93828 -1.31509,-0.93828 0,0 1.256061,-0.71895 1.764483,-0.22204 z m 4.414235,1.00055 -8.134631,9.32803 c -0.677915,-0.73498 -0.326429,-1.56595 0.398155,-2.13595 1.511967,-1.18938 4.061632,-4.54523 4.204688,-4.83415 0.164763,-0.33275 0.131004,-1.014 -0.293935,-1.41821 0.856132,-0.65622 2.776034,-1.89412 3.825723,-0.93972 z M 41.4426,177.98781 c 0.477622,-0.0558 1.21329,0.88775 3.15038,2.95931 2.213819,2.36749 3.44717,3.57967 3.003786,3.98334 -0.443382,0.40368 -0.854714,0.0418 -3.63678,-2.78389 -2.705835,-2.74829 -3.192777,-3.68659 -2.709171,-4.07372 0.06045,-0.0484 0.123552,-0.077 0.191785,-0.085 z m 18.834239,1.29917 c 0.339205,0.33301 15.810505,13.82135 18.091294,15.97562 2.280789,2.15426 7.282087,7.15127 7.282087,8.35681 -2.074691,-0.13928 -5.516337,-2.73417 -8.923614,-5.5265 -3.407277,-2.79232 -13.759969,-11.34056 -19.084036,-15.77849 z m -20.131185,0.94744 c 0.422213,0 5.097756,4.7565 5.097756,5.186 0,0.17663 -0.454458,0.75944 -1.028305,1.29765 -0.19728,0.18504 -0.805419,0.87774 -1.143587,1.12153 -0.309701,-0.39383 -0.801104,-0.75623 -1.232541,-1.10836 -0.431439,-0.35212 -1.764909,-0.76062 -2.737638,-0.77212 -0.972727,-0.0115 -1.626995,0.158 -2.544429,0.56005 -0.766291,-0.55006 -1.657673,-1.42751 -2.262269,-2.25657 -0.107195,-0.24338 5.472216,-4.02818 5.851013,-4.02818 z m -8.132852,4.08618 c 1.009287,1.05252 2.157337,2.16705 3.288081,3.01482 -0.209458,0.32037 -0.226064,0.32216 -0.273537,0.36871 -0.601711,-0.20415 -3.600117,-2.5527 -3.771717,-2.81387 0.342962,-0.20303 0.424993,-0.25027 0.757173,-0.56966 z m -2.117097,0.8198 c 1.743119,1.93445 3.83313,3.35451 5.899762,4.30393 l 1.078829,-1.10765 c 1.167937,-1.19942 3.393555,-1.04666 4.531653,-0.047 1.039965,0.91349 0.769194,3.53585 0.04377,4.44804 l -0.616983,0.77639 0.540483,1.32042 c 0.59001,1.75215 -0.03478,3.40664 -1.582663,4.19114 0,0 0.669313,-0.33884 0,3.7e-4 -0.669313,0.3392 -2.08838,0.43277 -3.142911,-0.038 -1.054532,-0.47085 -1.685765,-1.58392 -1.834614,-2.07084 -0.14885,-0.48693 -0.113296,-1.5656 -0.113296,-1.5656 -1.664115,-0.21314 -4.129858,0.20508 -6.859212,1.90434 -0.4329,0 -3.734272,-5.08501 -3.734272,-5.73182 l 4.224585,-0.23804 c -1.451253,-0.54932 -2.96674,-0.96153 -4.370826,-1.57092 0,-0.17948 1.335567,-1.28219 2.96785,-2.4505 z m 3.084556,11.42058 0.406814,0.39845 c -1.459391,0.33198 -3.296925,1.37389 -3.973896,2.01328 -0.292252,-0.1167 -0.625193,-0.7115 -0.689574,-0.96998 1.327269,-1.04752 3.274535,-1.41621 4.256656,-1.44175 z m 0.723728,1.40225 1.497622,1.56772 c 0.647885,0.67822 1.588229,0.89972 2.116741,1.02974 0.860708,0.21171 4.377621,3.75065 4.377621,4.45765 0,0 -0.33809,0.57021 -0.672497,0.84222 -0.334404,0.27201 -0.609995,1.01838 -0.887911,1.65845 l -0.93653,1.26661 -4.698319,-3.85951 -2.044283,-1.56106 -0.01539,-1.14241 c -0.630363,-0.83739 -1.665888,-2.12875 -2.060788,-2.74594 1.725602,-1.03951 2.099184,-1.14718 3.323736,-1.51347 z m 8.820998,0.53906 c 0.652375,0.33341 2.860527,1.86712 3.172086,2.27401 0.01919,0.49156 -1.428051,2.65035 -2.297577,3.14928 l -3.353114,-3.54565 c 0.418146,-0.20908 1.824421,-0.87095 2.478605,-1.87764 z"
         style="display:inline;fill:#4b4b4b;fill-opacity:1;stroke:none;stroke-width:0.17530419;stroke-miterlimit:4;stroke-dasharray:none;stroke-opacity:1" />
      <path
         sodipodi:nodetypes="ssccczcccccscssccccccccsccccsscccsccccccsssczs"
         inkscape:connector-curvature="0"
         id="path4517-7"
         d="m 30.931466,224.22908 c -1.046001,-0.18359 -1.966989,-0.72561 -2.132962,-1.52988 -0.220699,-1.06947 0.52248,-2.56805 0.544149,-3.73562 -0.319622,-0.45133 -0.844223,-1.47755 -0.296239,-2.73399 -1.185424,-3.0472 -1.311125,-3.9011 -2.196804,-4.38472 -1.579979,-0.79827 -0.866346,-2.11073 -1.113705,-2.43117 -0.247366,-0.32044 -0.528691,-0.79612 -0.896422,-1.42409 -0.557244,-0.9516 -0.846508,-1.10689 -1.736842,-0.93237 -1.61062,0.31571 -3.015118,-0.74371 -2.999839,-2.26279 0.01357,-1.34633 0.465621,-2.06581 1.911906,-3.04276 1.122958,-0.75856 2.616581,-0.8206 4.740585,-0.19691 1.179578,0.34638 1.698829,0.34638 2.264722,0 1.216346,-0.74449 2.559679,-0.52884 3.425461,0.5499 0.441116,0.54962 0.802029,1.23229 0.802029,1.51705 0,0.28477 0.162799,0.51775 0.361781,0.51775 1.33819,0 4.394117,1.97612 5.026868,3.25064 l 0.551523,1.11089 0.415907,-0.95868 c 0.716925,-1.65256 2.605042,-3.78261 3.561525,-4.0179 0.504667,-0.12413 0.91758,-0.42522 0.91758,-0.6691 0.321921,-1.02066 0.88619,-2.07975 1.413221,-2.82511 0.35323,-0.49118 1.024312,-1.01019 1.54876,-1.29525 1.37133,-0.74565 4.342781,-0.85792 5.82255,-0.0449 1.793944,0.71488 3.211565,2.99777 3.211565,3.94466 0,0.4235 0.304736,0.88349 0.677196,1.02222 1.217241,0.45336 3.578607,3.24807 3.598065,4.25836 0.01736,0.89963 0.06314,0.87511 0.677203,-0.3625 0.404932,-0.81614 1.217537,-1.59508 2.109751,-2.02237 0.798125,-0.38221 1.451139,-0.83799 1.451139,-1.01282 0,-0.17485 0.514514,-0.42866 1.143374,-0.56403 0.644436,-0.13872 1.24742,-0.56744 1.381824,-0.98246 0.400636,-1.23716 2.290817,-1.95952 3.951501,-1.51011 1.114332,0.30154 1.615632,0.26345 2.297814,-0.17462 1.754552,-1.12674 4.775343,-0.27512 5.60784,0.85916 0.476878,0.64973 0.963457,1.56648 0.511752,3.14488 -0.305445,0.9432 -1.836792,1.58896 -3.056526,1.28893 -1.10043,-0.27069 -1.948743,0.88189 -2.346232,3.18776 -0.205702,1.19327 -0.526239,1.73846 -1.19865,2.03872 -1.021137,0.456 -1.555728,2.53408 -1.852793,4.72526 0.442182,1.13002 -0.08512,1.70582 -0.534861,2.36381 -0.188963,1.35304 0.738318,2.91798 0.478303,3.9304 -0.260008,1.01244 -1.643236,1.43428 -2.458801,1.48485 -0.762272,0.0472 -5.990305,0.42712 -9.792475,0.44393 l -16.210655,0.0717 c 0,0 -10.536094,-0.41313 -11.582088,-0.59674 z"
         style="display:inline;opacity:1;fill:#dcdce5;fill-opacity:1;stroke-width:0.3830978" />
      <path
         sodipodi:nodetypes="ssccczcccccscssccccccccsccccsscccsccccccsssczszzzzzzzccccczzzzzzzssccccccccccccsssscccsccsccccsccccsccccccccssssccscccsccccsssssccsccccsccccsccscccscccscccsssssccscccsccccccczcszzcssczszczscssssscczzszzscssccssssscssccsssccssscssssssscssscccscccccccccccccc"
         inkscape:connector-curvature="0"
         id="path4517"
         d="m 30.931437,224.229 c -1.045997,-0.18358 -1.966987,-0.7256 -2.132961,-1.52988 -0.2207,-1.06947 0.522478,-2.56805 0.544146,-3.73562 -0.319618,-0.45133 -0.844223,-1.47754 -0.296238,-2.73398 -1.185421,-3.04721 -1.311123,-3.90111 -2.196799,-4.38472 -1.579985,-0.79828 -0.866345,-2.11073 -1.11371,-2.43117 -0.247365,-0.32045 -0.528686,-0.79613 -0.896416,-1.4241 -0.557246,-0.9516 -0.846514,-1.10688 -1.736849,-0.93237 -1.610615,0.31572 -3.015111,-0.74371 -2.999835,-2.26279 0.01353,-1.34633 0.465622,-2.0658 1.911908,-3.04276 1.122955,-0.75856 2.616578,-0.82059 4.740579,-0.1969 1.179584,0.34637 1.69883,0.34637 2.264728,0 1.216346,-0.7445 2.559676,-0.52884 3.425457,0.54989 0.441116,0.54962 0.802029,1.23229 0.802029,1.51706 0,0.28476 0.162803,0.51775 0.361779,0.51775 1.338195,0 4.394124,1.97611 5.026875,3.25064 l 0.551518,1.11088 0.415909,-0.95868 c 0.716925,-1.65255 2.605045,-3.78261 3.561525,-4.0179 0.504667,-0.12413 0.917577,-0.42522 0.917577,-0.66909 0.321924,-1.02067 0.886188,-2.07976 1.413225,-2.82511 0.353228,-0.49119 1.024309,-1.01019 1.548762,-1.29525 1.371324,-0.74565 4.342777,-0.85793 5.822546,-0.0449 1.793945,0.71488 3.211566,2.99776 3.211566,3.94466 0,0.42349 0.304734,0.88349 0.677195,1.02221 1.217242,0.45336 3.578607,3.24807 3.598065,4.25836 0.01735,0.89963 0.06314,0.87511 0.677203,-0.36249 0.404933,-0.81614 1.217538,-1.59509 2.109752,-2.02237 0.798125,-0.38222 1.451139,-0.838 1.451139,-1.01283 0,-0.17485 0.514513,-0.42866 1.143374,-0.56403 0.644435,-0.13872 1.24742,-0.56744 1.381823,-0.98245 0.400636,-1.23717 2.290818,-1.95952 3.951502,-1.51012 1.114331,0.30155 1.615631,0.26345 2.297813,-0.17462 1.754553,-1.12674 4.775343,-0.27512 5.607839,0.85916 0.476879,0.64974 0.963458,1.56648 0.511754,3.14488 -0.305445,0.9432 -1.836793,1.58897 -3.056526,1.28894 -1.10043,-0.2707 -1.948743,0.88188 -2.346232,3.18776 -0.205702,1.19326 -0.526239,1.73845 -1.19865,2.03872 -1.021137,0.456 -1.555729,2.53408 -1.852794,4.72526 0.442182,1.13001 -0.08512,1.70582 -0.534861,2.3638 -0.188963,1.35305 0.738319,2.91799 0.478304,3.93041 -0.260008,1.01243 -1.643236,1.43427 -2.458802,1.48485 -0.762272,0.0472 -5.990305,0.42711 -9.792475,0.44393 l -16.210655,0.0717 c 0,0 -10.536094,-0.41313 -11.582091,-0.59673 z m 37.723872,-1.88498 c 0,-0.4958 -0.68298,-0.53559 -1.083189,-0.53838 -0.400209,-0.003 -34.927962,-0.0281 -35.56652,2e-4 -0.638557,0.0283 -1.245872,0.0452 -1.243525,0.53843 0.0024,0.49328 0.626406,0.556 1.189164,0.57632 0.562759,0.0203 35.333263,0.003 35.61067,0 0.277414,-0.003 1.0934,-0.0807 1.0934,-0.57657 z m -0.06818,-1.48907 v -1.95517 l -37.525604,-2.9e-4 v 1.95546 z m 0.341924,-3.37503 c 0.0087,-0.47304 -0.201895,-0.53632 -1.240741,-0.52635 -1.038839,0.01 -34.828966,0.002 -35.653365,10e-5 -0.824401,-0.002 -1.139719,0.26728 -1.144839,0.62738 -0.0051,0.3601 0.333132,0.34347 1.138331,0.37238 0.8052,0.0289 34.962192,0.0103 35.657311,-7e-5 0.695119,-0.0103 1.234607,-3.9e-4 1.243303,-0.47344 z M 36.986435,214.9324 c 0.923242,-0.53029 1.678625,-1.12762 1.678625,-1.32743 0,-0.70424 1.251959,-0.35213 1.981956,0.55743 1.066271,1.32855 3.020858,1.87284 4.922885,1.37088 1.446338,-0.3817 2.355991,-1.07527 3.75167,-2.86048 0.584678,-0.74786 0.599627,-0.7482 1.063045,-0.0245 0.746656,1.16614 2.322194,2.54265 3.35494,2.93116 1.46595,0.55148 3.925977,-0.0133 5.562113,-1.27712 1.450466,-1.12034 1.492824,-1.12859 2.01821,-0.39344 2.035017,2.84752 8.175893,2.11015 8.887943,-1.06723 0.156864,-0.69997 0.07439,-1.36416 -0.21128,-1.70151 -0.534047,-0.63067 -2.14362,-0.74266 -2.502152,-0.1741 -0.400023,0.63436 -1.067345,0.42297 -0.802242,-0.25412 0.136476,-0.34857 0.02458,-0.77494 -0.248825,-0.94816 -0.398777,-0.25266 -0.39024,-0.38206 0.04331,-0.65576 0.297058,-0.18754 0.433121,-0.61422 0.302373,-0.94816 -0.151472,-0.38687 -0.03154,-0.60717 0.330583,-0.60717 0.312572,0 0.56831,0.16466 0.56831,0.36592 0,0.59282 1.513825,1.21285 2.336441,0.95696 0.533339,-0.16591 0.759325,-0.57664 0.759325,-1.38005 0,-1.46684 0.886527,-1.25724 1.176176,0.27809 l 0.208739,1.1065 1.048914,-1.60433 c 1.370848,-2.09676 1.35468,-2.75722 -0.06747,-2.75722 -0.763815,0 -1.316598,-0.29945 -1.750284,-0.94816 -0.681382,-1.0192 -1.724497,-1.22713 -2.473502,-0.49303 -0.553196,0.54217 -0.625073,2.57898 -0.09101,2.57898 0.648732,0 1.297133,1.5486 0.837152,1.99942 -0.287453,0.28173 -0.795247,-0.0123 -1.707952,-0.98888 -1.527636,-1.63458 -2.097723,-1.73208 -2.597302,-0.44427 -0.259918,0.67002 -0.618428,0.91866 -1.230406,0.85335 -0.606049,-0.0647 -1.016758,0.21337 -1.377093,0.93233 -0.482731,0.96319 -0.325833,2.97105 0.226627,2.90018 0.948055,-0.12162 1.554613,0.12654 1.382671,0.56569 -0.109423,0.27948 0.08827,0.74176 0.439311,1.0273 0.544472,0.44287 0.807564,0.42393 1.790343,-0.12887 1.578072,-0.88765 2.637237,-0.84103 2.637237,0.11607 0,1.02599 -2.148544,2.2668 -3.928193,2.26859 -1.162461,0.002 -1.71616,-0.30009 -3.12399,-1.69963 l -1.711099,-1.70106 -0.867509,1.15 c -1.198258,1.58845 -3.095174,2.41577 -4.814239,2.09971 -2.310971,-0.42491 -4.366624,-3.59214 -2.553545,-3.93435 0.329833,-0.0622 0.817239,0.28517 1.083113,0.77207 0.715651,1.31057 1.909379,1.95161 2.595292,1.3937 0.302573,-0.24611 0.550131,-0.68259 0.550131,-0.96994 0,-0.28734 0.342152,-0.52245 0.760331,-0.52245 0.87905,0 1.561493,-1.05296 1.561493,-2.40926 0,-1.33895 -0.381777,-2.14191 -1.018404,-2.14191 -0.301747,0 -0.714151,-0.42667 -0.916452,-0.94816 -0.485732,-1.25214 -1.350274,-1.19678 -2.961403,0.18963 -0.727211,0.6258 -1.490282,1.1378 -1.695709,1.1378 -0.860728,0 -0.27442,-1.4049 1.00331,-2.4041 1.544692,-1.20795 1.68271,-2.48161 0.331954,-3.06328 -0.443601,-0.19101 -0.894245,-0.0595 -1.040651,-1.05761 -0.337269,-1.4749 -4.924798,-1.36723 -4.924798,0.0592 0,0.39915 -0.348274,0.83408 -0.773942,0.96648 -1.220965,0.37981 -1.007006,2.1363 0.411068,3.37465 0.651756,0.56915 1.119746,1.2267 1.039985,1.46123 -0.293731,0.86363 -1.105171,0.70055 -2.192945,-0.44072 -1.282026,-1.34508 -2.33583,-1.5106 -2.62872,-0.41289 -0.111316,0.41719 -0.430849,0.75853 -0.710072,0.75853 -0.898035,0 -1.723878,1.15763 -1.723878,2.41645 0,1.35802 0.581544,2.13472 1.598364,2.13472 0.399814,0 0.71946,0.34383 0.79329,0.85333 0.175565,1.21157 1.580637,1.30044 2.699493,0.17076 1.745753,-1.76265 3.000498,-1.60219 2.266531,0.28985 -0.450496,1.16128 -2.435857,2.09942 -4.442967,2.09942 -1.085163,0 -1.695161,-0.3218 -2.960118,-1.56156 l -1.593291,-1.56155 -0.825277,0.94085 c -1.262891,1.43973 -3.388316,2.55853 -4.86353,2.56011 -1.488941,0.002 -3.120707,-1.2221 -3.120707,-2.34027 0,-0.91395 0.817096,-0.87702 2.076446,0.0939 1.250848,0.96432 2.203187,0.83144 2.826764,-0.39441 0.259867,-0.51086 0.830184,-1.05853 1.267373,-1.21703 0.814027,-0.29512 0.996147,-1.24464 0.550988,-2.87266 -0.170685,-0.62423 -0.520798,-0.85335 -1.30398,-0.85335 -0.745201,0 -1.132168,-0.23056 -1.273038,-0.75852 -0.303938,-1.13911 -1.667847,-0.9429 -2.448453,0.35224 -0.861803,1.42986 -2.083071,1.80784 -2.083071,0.6447 0,-0.4556 0.359109,-1.12972 0.798023,-1.49804 1.176871,-0.9876 0.888953,-2.68499 -0.481767,-2.84018 -0.71193,-0.0806 -1.320618,0.40024 -1.594202,0.90125 0,0 -0.831466,1.00138 -2.017563,0.99273 -1.182766,-0.009 -1.890308,0.50067 -0.812501,2.16758 l 1.168536,1.91241 0.759535,-1.58756 c 0.821848,-2.13935 1.608979,-2.01499 1.212452,0.34734 -0.262716,1.00863 -0.0043,1.21617 0.756868,1.22572 0.623538,0.0482 2.074182,-0.0731 2.320668,-0.7386 0.141126,-0.38102 0.432305,-0.45932 0.70436,-0.39604 0.272053,0.0633 0.434601,0.40276 0.265117,0.60082 -0.178745,0.20889 -0.306817,0.64276 -0.103102,0.77859 0.325959,0.21733 0.597046,0.40808 0.146984,0.55041 -0.217427,0.0688 -0.414613,0.34134 -0.414613,0.75853 0.354251,0.63887 -0.337564,1.02062 -0.741995,0.37927 -0.402333,-0.63803 -1.91615,-0.42215 -2.340158,0.35433 -0.646714,1.18433 -0.477855,1.78694 0.902764,3.22166 1.1013,1.14447 1.56094,1.35443 2.965025,1.35443 1.081615,0 2.247658,-0.33657 3.340301,-0.96415 z m -1.664033,-5.85187 c -0.0284,-1.06121 0.121246,-1.52779 0.489979,-1.52779 0.331858,0 0.530854,0.42652 0.530854,1.13779 0,0.62579 0.0092,1.2658 0.02043,1.42225 0.01126,0.15644 -0.209246,0.33194 -0.489979,0.38999 -0.350986,0.0726 -0.523184,-0.37167 -0.551294,-1.42224 z m 7.029879,1.05628 c -0.503762,-1.41752 -0.374557,-2.75144 0.27923,-2.88284 0.555551,-0.11165 0.677199,0.13738 0.677199,1.38637 0,1.50357 -0.613035,2.46275 -0.956429,1.49647 z m 2.315243,-1.17102 c -0.409664,-0.009 -0.802059,-0.18539 -0.804225,-0.39405 -0.0021,-0.20868 0.307073,-0.32658 0.828733,-0.35462 0.422647,-0.0227 0.845117,-0.10545 0.618346,-0.75318 -0.173715,-0.44787 0.04603,-0.89913 0.793233,-0.12234 1.985207,2.06383 3.541526,-0.92521 2.647382,-2.04911 -0.940564,-1.18225 -0.776057,-1.66309 -0.0404,-1.38284 0.426364,0.10076 0.670869,-0.11264 0.781264,-0.45635 0.110396,-0.34366 0.182518,-0.45172 0.395353,-0.45172 0.212834,0 0.331053,0.0519 0.445639,0.45969 0.114586,0.40784 0.378175,0.58271 0.828413,0.49906 0.644284,-0.29662 0.794235,0.25414 -0.148298,1.33663 -0.942531,1.08248 0.735929,3.74129 3.039952,2.05107 0.679827,-0.49873 0.829557,-0.14622 0.635801,0.34863 -0.174931,0.44679 -0.01797,0.61461 0.574706,0.61461 0.448442,0 0.815345,0.17067 0.815345,0.37926 0,0.20861 -0.348278,0.37927 -0.773943,0.37927 -0.429968,0 -0.773943,0.25284 -0.773943,0.5689 0,0.64404 -0.605966,0.76283 -0.967424,0.18963 -0.350716,-0.55616 -1.83516,-0.46232 -2.763082,0.17468 -0.700359,0.48078 -0.903398,0.48237 -1.537241,0.0121 -0.849205,-0.64909 -2.662669,-0.71186 -3.128604,-0.17747 -0.465935,0.53438 -0.848209,-0.0348 -0.822987,-0.1766 0.02522,-0.14177 -0.125497,-0.68448 -0.644023,-0.6952 z m 5.322887,-0.52245 c -0.413452,-0.009 -0.431306,0.71544 8.27e-4,0.70834 0.432156,-0.007 0.412602,-0.69967 -8.27e-4,-0.70834 z m 6.612328,1.58206 c 0.137474,-0.3511 0.249948,-1.13642 0.249948,-1.74515 0,-0.74912 0.194768,-1.10677 0.602709,-1.10677 0.958872,0 0.609974,3.17155 -0.368942,3.35375 -0.552831,0.1029 -0.672052,-0.0208 -0.483715,-0.50183 z m 6.828455,-1.14523 c 0,-0.92709 0.175055,-1.32743 0.580455,-1.32743 0.405401,0 0.580456,0.40034 0.580456,1.32743 0,0.92709 -0.175055,1.32742 -0.580456,1.32742 -0.4054,0 -0.580455,-0.40033 -0.580455,-1.32742 z m -15.386139,-7.77491 c 0.187723,-0.95875 4.163987,-0.82465 4.163987,0.14044 0,0.31781 -0.687848,0.46212 -2.137688,0.44852 -1.684739,-0.0159 -2.114087,-0.1406 -2.026299,-0.58896 z m -7.832111,14.22239 c -0.264956,-0.3129 -0.700297,-0.5689 -0.967428,-0.5689 -0.26713,0 -0.702472,0.256 -0.967426,0.5689 -0.413626,0.48845 -0.276843,0.56889 0.967426,0.56889 1.24427,0 1.381053,-0.0805 0.967428,-0.56889 z m 10.641699,-0.18963 c -0.385226,-0.41719 -0.895924,-0.75853 -1.13489,-0.75853 -0.238962,0 -0.732679,0.34134 -1.097147,0.75853 -0.648998,0.74287 -0.625582,0.75852 1.134888,0.75852 1.773043,0 1.788006,-0.0103 1.097149,-0.75852 z m 10.641696,0.37926 c 0,-0.20859 -0.337998,-0.37926 -0.751104,-0.37926 -0.413106,0 -0.858724,0.17067 -0.990263,0.37926 -0.135643,0.2151 0.189467,0.37926 0.751105,0.37926 0.544644,0 0.990262,-0.17066 0.990262,-0.37926 z M 28.21685,210.01796 c 0,-0.3129 -0.174136,-0.5689 -0.38697,-0.5689 -0.212835,0 -0.386971,0.256 -0.386971,0.5689 0,0.31288 0.174136,0.56889 0.386971,0.56889 0.212834,0 0.38697,-0.25601 0.38697,-0.56889 z m 44.114676,0 c 0,-0.2086 -0.17414,-0.43615 -0.386975,-0.50569 -0.212829,-0.0695 -0.386968,0.15803 -0.386968,0.50569 0,0.34766 0.174139,0.57522 0.386968,0.50568 0.212835,-0.0695 0.386975,-0.29708 0.386975,-0.50568 z m -47.124719,-5.58157 c 1.5285,-0.95514 1.644969,-1.47123 0.123962,-1.86992 -1.351569,-0.35426 -3.14152,0.46919 -3.51293,1.61609 -0.533279,1.64675 0.936337,1.78645 3.388961,0.25383 z m 52.540703,0.27377 c 0.792272,-0.9356 -0.477601,-2.46856 -2.038907,-2.4613 -0.686808,0.003 -1.509941,0.17698 -1.829198,0.3862 -0.512124,0.33562 -0.508021,0.42245 0.03484,0.73761 0.338406,0.19647 1.03495,0.69968 1.54788,1.11824 1.125376,0.91833 1.650734,0.96873 2.285392,0.21925 z"
         style="display:inline;opacity:1;fill:#4b4b4b;fill-opacity:1;stroke:#4b4b4b;stroke-width:0.1;stroke-miterlimit:4;stroke-dasharray:none;stroke-opacity:1" />
    </g>
    <g
       style="display:inline"
       id="g5549"
       transform="matrix(0.50000006,0,0,0.50000006,-39.348946,163.8216)">
      <path
         inkscape:connector-curvature="0"
         style="fill:#640000;fill-opacity:1;fill-rule:nonzero;stroke:none;stroke-width:0.18709002"
         d="m 78.697883,239.89842 h 13.2291 v 26.45833 h -13.2291 z"
         id="path201-4" />
      <path
         inkscape:connector-curvature="0"
         style="fill:#c80000;fill-opacity:1;fill-rule:nonzero;stroke:none;stroke-width:0.26458332"
         d="m 78.9625,259.74221 h 6.35 v 6.34995 h -6.35 z"
         id="path203-1" />
      <path
         inkscape:connector-curvature="0"
         style="fill:#c80000;fill-opacity:1;fill-rule:nonzero;stroke:none;stroke-width:0.26458332"
         d="m 78.9625,240.16305 h 6.35 v 6.34995 h -6.35 z"
         id="path205-9" />
      <path
         inkscape:connector-curvature="0"
         style="fill:#000000;fill-opacity:1;fill-rule:nonzero;stroke:none;stroke-width:0.18708941"
         d="m 85.576983,246.77773 h 6.35 v 12.6999 h -6.35 z"
         id="path211-3" />
      <path
         inkscape:connector-curvature="0"
         style="fill:#4b0000;fill-opacity:1;fill-rule:nonzero;stroke:none;stroke-width:0.25443631"
         d="m 78.697916,239.89842 h 0.264583 v 0.26458 h -0.264583 z"
         id="path213-6" />
      <path
         inkscape:connector-curvature="0"
         style="fill:#960000;fill-opacity:1;fill-rule:nonzero;stroke:none;stroke-width:0.25944373"
         d="m 78.9625,239.89842 h 6.35 v 0.26458 h -6.35 z"
         id="path215-4" />
      <path
         inkscape:connector-curvature="0"
         style="fill:#320000;fill-opacity:1;fill-rule:nonzero;stroke:none;stroke-width:0.18345514"
         d="m 85.576983,239.89842 h 6.35 v 0.26458 h -6.35 z"
         id="path217-2" />
      <path
         inkscape:connector-curvature="0"
         style="fill:#960000;fill-opacity:1;fill-rule:nonzero;stroke:none;stroke-width:0.25942957"
         d="m 85.3125,240.16305 h 0.264583 V 246.513 H 85.3125 Z"
         id="path221-2" />
      <path
         inkscape:connector-curvature="0"
         style="fill:#960000;fill-opacity:1;fill-rule:nonzero;stroke:none;stroke-width:0.25947672"
         d="m 78.697883,240.16305 h 0.264583 v 6.34995 h -0.264583 z"
         id="path223-9" />
      <path
         inkscape:connector-curvature="0"
         style="fill:#960000;fill-opacity:1;fill-rule:nonzero;stroke:none;stroke-width:0.27003923"
         d="m 78.9625,246.513 h 6.35 v 0.26458 h -6.35 z"
         id="path225-5" />
      <path
         inkscape:connector-curvature="0"
         style="fill:#960000;fill-opacity:1;fill-rule:nonzero;stroke:none;stroke-width:0.25944373"
         d="m 78.9625,259.47758 h 6.35 v 0.26458 h -6.35 z"
         id="path227-4" />
      <path
         inkscape:connector-curvature="0"
         style="fill:#960000;fill-opacity:1;fill-rule:nonzero;stroke:none;stroke-width:0.25942957"
         d="m 85.3125,259.74221 h 0.264583 v 6.34995 H 85.3125 Z"
         id="path229-1" />
      <path
         inkscape:connector-curvature="0"
         style="fill:#960000;fill-opacity:1;fill-rule:nonzero;stroke:none;stroke-width:0.27003923"
         d="m 78.9625,266.09217 h 6.35 v 0.26458 h -6.35 z"
         id="path231-6" />
      <path
         inkscape:connector-curvature="0"
         style="fill:#960000;fill-opacity:1;fill-rule:nonzero;stroke:none;stroke-width:0.25947672"
         d="m 78.697883,259.74221 h 0.264583 v 6.34995 h -0.264583 z"
         id="path233-4" />
      <path
         inkscape:connector-curvature="0"
         style="fill:#4b0000;fill-opacity:1;fill-rule:nonzero;stroke:none;stroke-width:0.25439009"
         d="m 85.3125,239.89842 h 0.264583 V 240.163 H 85.3125 Z"
         id="path249-5" />
      <path
         inkscape:connector-curvature="0"
         style="fill:#4b0000;fill-opacity:1;fill-rule:nonzero;stroke:none;stroke-width:0.26482731"
         d="m 78.697883,266.09217 h 0.264583 v 0.26458 h -0.264583 z"
         id="path251-6" />
      <path
         inkscape:connector-curvature="0"
         style="fill:#4b0000;fill-opacity:1;fill-rule:nonzero;stroke:none;stroke-width:0.27560765"
         d="m 85.3125,266.09217 h 0.264583 v 0.26458 H 85.3125 Z"
         id="path257-1" />
      <path
         inkscape:connector-curvature="0"
         style="fill:#2f0000;fill-opacity:1;fill-rule:nonzero;stroke:none;stroke-width:0.19094732"
         d="m 85.576983,246.513 h 6.35 v 0.26458 h -6.35 z"
         id="path259-2" />
      <path
         inkscape:connector-curvature="0"
         style="fill:#4b0000;fill-opacity:1;fill-rule:nonzero;stroke:none;stroke-width:0.26477921"
         d="m 85.3125,246.513 h 0.264583 v 0.26458 H 85.3125 Z"
         id="path261-7" />
      <path
         inkscape:connector-curvature="0"
         style="fill:#4b0000;fill-opacity:1;fill-rule:nonzero;stroke:none;stroke-width:0.27560765"
         d="m 78.697883,246.513 h 0.264583 v 0.26458 h -0.264583 z"
         id="path263-3" />
      <path
         inkscape:connector-curvature="0"
         style="fill:#4b0000;fill-opacity:1;fill-rule:nonzero;stroke:none;stroke-width:0.26479363"
         d="m 78.697883,259.47758 h 0.264583 v 0.26458 h -0.264583 z"
         id="path265-0" />
      <path
         inkscape:connector-curvature="0"
         style="fill:#4b0000;fill-opacity:1;fill-rule:nonzero;stroke:none;stroke-width:0.26479363"
         d="m 85.3125,259.47758 h 0.264583 v 0.26458 H 85.3125 Z"
         id="path267-4" />
      <path
         inkscape:connector-curvature="0"
         style="fill:#320000;fill-opacity:1;fill-rule:nonzero;stroke:none;stroke-width:0.25947672"
         d="m 78.697883,246.77773 h 0.264583 v 12.6999 h -0.264583 z"
         id="path269-2" />
      <path
         inkscape:connector-curvature="0"
         style="fill:#320000;fill-opacity:1;fill-rule:nonzero;stroke:none;stroke-width:0.27003923"
         d="m 85.3125,246.77773 h 0.264583 v 12.6999 H 85.3125 Z"
         id="path271-1" />
      <path
         inkscape:connector-curvature="0"
         style="fill:#2f0000;fill-opacity:1;fill-rule:nonzero;stroke:none;stroke-width:0.18345514"
         d="m 85.576983,259.47758 h 6.35 v 0.26458 h -6.35 z"
         id="path277-6" />
      <path
         inkscape:connector-curvature="0"
         style="fill:#2f0000;fill-opacity:1;fill-rule:nonzero;stroke:none;stroke-width:0.19094732"
         d="m 85.576983,266.09217 h 6.35 v 0.26458 h -6.35 z"
         id="path279-2" />
      <path
         inkscape:connector-curvature="0"
         style="fill:#ffff00;fill-opacity:0.58823529;fill-rule:nonzero;stroke:none;stroke-width:0.18708934"
         d="m 78.697883,252.86299 h 13.2291 v 0.52917 h -13.2291 z"
         id="path283-9" />
    </g>
  </g>
</svg>
